<svg width="512" height="512" viewBox="0 0 512 512" fill="none" xmlns="http://www.w3.org/2000/svg">
<rect x="0.5" y="0.5" width="511" height="511" rx="65.5" fill="black" stroke="black"/>
<path d="M305.884 171.942L305.853 171.929L305.818 171.927L305.781 171.929L305.749 171.94L305.72 171.958L305.694 171.982L305.675 172.012L305.665 172.043L305.659 172.081V370.867L305.651 370.926L305.641 370.947L305.628 370.968L305.606 370.981L305.585 370.992L305.527 371H275.602L275.544 370.992L275.523 370.981L275.504 370.968L275.488 370.947L275.478 370.926L275.47 370.867V160.808L275.464 160.757L275.446 160.715L275.411 160.678L275.366 160.651L270.936 158.77L266.511 156.883L262.094 154.991L257.682 153.096L257.502 153.022L257.306 152.947L256.776 152.769L256.275 152.599L255.915 152.461L255.846 152.44L255.778 152.432L255.703 152.44L255.629 152.466L236.771 161.225L236.721 161.252L236.676 161.286L236.636 161.326L236.604 161.371L236.575 161.422L236.557 161.475L236.546 161.531L236.541 161.587V370.867L236.533 370.926L236.522 370.947L236.509 370.968L236.488 370.981L236.467 370.992L236.409 371H206.484L206.425 370.992L206.404 370.981L206.386 370.968L206.37 370.947L206.359 370.926L206.351 370.867V172.628L206.349 172.599L206.338 172.57L206.322 172.546L206.301 172.524L206.277 172.511L206.248 172.501L206.219 172.498L206.19 172.501L206.163 172.511L167.867 191.28L167.828 191.302L167.793 191.331L167.761 191.363L167.735 191.4L167.714 191.44L167.701 191.482L167.69 191.525L167.687 191.57V370.867L167.679 370.926L167.669 370.947L167.656 370.968L167.634 370.981L167.613 370.992L167.555 371H137.63L137.572 370.992L137.551 370.981L137.532 370.968L137.516 370.947L137.506 370.926L137.498 370.867V202.938L137.492 202.901L137.482 202.861L137.461 202.829L137.431 202.8L137.4 202.776L137.363 202.763L137.323 202.758L137.281 202.76L137.243 202.774L110.531 214.934L110.491 214.95L110.454 214.958H110.42L110.388 214.95L110.356 214.936L110.33 214.918L110.306 214.889L110.282 214.854L101.019 198.801V198.798L101.008 198.774L101 198.748V198.718L101.005 198.692L101.016 198.665L101.032 198.641L101.05 198.623L101.074 198.607L101.818 198.213L102.515 197.836L174.75 158.05L246.983 118.258L247.094 118.202L247.205 118.151L247.319 118.109L247.436 118.072L247.573 118.04L247.711 118.019L247.854 118.005L247.997 118L251.816 118.013L255.632 118.019H259.445L263.256 118.011L263.396 118.013L263.534 118.021L263.672 118.035L263.807 118.053L264.043 118.098L264.276 118.159L264.514 118.239L264.755 118.337L264.999 118.452L265.263 118.59L265.555 118.755L265.957 118.997L266.405 119.262L266.749 119.459L410.91 199.146L410.942 199.167L410.966 199.189L410.984 199.213L410.997 199.239L411 199.268L410.997 199.298L410.987 199.332L410.971 199.367L401.943 214.902L401.909 214.947L401.866 214.971L401.819 214.974L401.766 214.958L374.757 202.513L374.698 202.492L374.651 202.481L374.608 202.484L374.574 202.497L374.547 202.521L374.529 202.558L374.516 202.609L374.513 202.67V370.867L374.505 370.926L374.494 370.947L374.481 370.968L374.46 370.981L374.439 370.992L374.38 371H344.456L344.397 370.992L344.376 370.981L344.358 370.968L344.342 370.947L344.331 370.926L344.323 370.867V191.368L344.315 191.307L344.289 191.248L344.249 191.201L344.199 191.163L305.884 171.942Z" fill="white"/>
</svg>
